<?xml version="1.0" encoding="UTF-8" standalone="no"?>
<!-- Created with Inkscape (http://www.inkscape.org/) -->

<svg
   width="487.13943"
   height="347.23605"
   viewBox="0 0 128.88898 91.872872"
   version="1.1"
   id="svg5"
   inkscape:version="1.1 (c68e22c387, 2021-05-23)"
   sodipodi:docname="날개1_체커보드.svg"
   inkscape:export-filename="C:\1-UIUX콘셉트 기획\6-NR홈페이지 - 복사본\날개1.png"
   inkscape:export-xdpi="96"
   inkscape:export-ydpi="96"
   xmlns:inkscape="http://www.inkscape.org/namespaces/inkscape"
   xmlns:sodipodi="http://sodipodi.sourceforge.net/DTD/sodipodi-0.dtd"
   xmlns="http://www.w3.org/2000/svg"
   xmlns:svg="http://www.w3.org/2000/svg">
  <sodipodi:namedview
     id="namedview7"
     pagecolor="#ffffff"
     bordercolor="#666666"
     borderopacity="1.0"
     inkscape:pageshadow="2"
     inkscape:pageopacity="0"
     inkscape:pagecheckerboard="true"
     inkscape:document-units="px"
     showgrid="false"
     fit-margin-top="0"
     fit-margin-left="0"
     fit-margin-right="0"
     fit-margin-bottom="0"
     inkscape:zoom="1.4555556"
     inkscape:cx="239.08397"
     inkscape:cy="209.54198"
     inkscape:window-width="1920"
     inkscape:window-height="990"
     inkscape:window-x="-11"
     inkscape:window-y="-11"
     inkscape:window-maximized="1"
     inkscape:current-layer="layer1" />
  <defs
     id="defs2" />
  <g
     inkscape:label="레이어 1"
     inkscape:groupmode="layer"
     id="layer1"
     transform="translate(-168.36618,-51.858246)">
    <path
       style="fill:#a0a0a0;stroke:none;stroke-width:0.194766"
       d="m 173.35836,143.6119 c -1.24711,-0.25682 -3.09665,-1.2132 -4.16516,-2.15374 -0.50363,-0.4433 -0.87363,-0.84803 -0.82226,-0.8994 0.0514,-0.0514 0.64678,0.0879 1.32313,0.30944 0.67634,0.22157 1.44883,0.44519 1.71663,0.49695 0.26781,0.0518 0.70602,0.15015 0.97383,0.21865 1.47283,0.37674 4.78699,0.445 5.12641,0.10554 0.0988,-0.0988 0.30162,-0.13295 0.45062,-0.0758 0.14899,0.0572 0.38739,0.008 0.52979,-0.11092 0.1424,-0.11817 0.30613,-0.16763 0.36384,-0.10991 0.14732,0.14731 2.14665,-0.36659 3.68325,-0.94673 2.01353,-0.76022 6.10865,-2.91029 8.2289,-4.32047 3.03922,-2.02136 5.71627,-4.33083 10.58971,-9.13558 2.4912,-2.45611 4.49757,-4.49752 4.4586,-4.53649 -0.0389,-0.0389 0.24536,-0.39819 0.63183,-0.79827 0.86508,-0.8955 1.11844,-1.21469 3.65505,-4.60452 2.46691,-3.29668 5.06283,-7.13573 6.59474,-9.75284 1.27949,-2.18585 4.00857,-7.767055 4.38087,-8.959229 0.1338,-0.428485 0.30963,-0.866702 0.3907,-0.973827 0.31325,-0.413866 2.07121,-6.251244 2.22885,-7.401074 0.0294,-0.214248 0.10218,-0.521001 0.16176,-0.681682 0.0596,-0.160681 0.34374,-1.343879 0.63148,-2.629336 1.09557,-4.894643 2.83757,-9.334405 4.79129,-12.211394 1.09776,-1.61653 5.29508,-5.805848 7.54034,-7.525968 4.34168,-3.326221 9.05382,-5.755759 16.63993,-8.579408 9.82036,-3.655267 15.46824,-5.026952 24.19275,-5.875617 2.24956,-0.21882 4.48686,-0.461952 4.97182,-0.540297 0.48494,-0.07835 1.1861,-0.08271 1.55812,-0.0097 0.37202,0.07302 1.50902,0.227145 2.52667,0.342515 3.97388,0.450503 5.96383,1.304268 8.18436,3.511375 1.80043,1.789567 2.35094,2.839106 2.35887,4.497103 0.008,1.685661 -0.68963,3.058857 -2.14062,4.21312 -1.926,1.532147 -7.07003,3.805438 -10.50157,4.640962 l -1.41726,0.345076 0.6566,0.805497 c 0.36117,0.443023 0.75791,0.996934 0.88168,1.230909 0.35879,0.678255 0.26542,2.389856 -0.20523,3.762039 -0.35434,1.033043 -0.66884,1.498914 -1.70931,2.531953 -2.1391,2.123818 -5.03673,3.890788 -8.90165,5.428208 -2.14928,0.85496 -7.05209,2.46273 -8.12211,2.663462 -0.38649,0.07245 -0.70272,0.214897 -0.70272,0.31642 0,0.101534 -0.0991,0.123387 -0.22004,0.04855 -0.12851,-0.07948 -0.18591,-0.03363 -0.138,0.110087 0.0451,0.135346 0.99865,0.571282 2.11898,0.968767 4.73801,1.680962 6.88762,3.211549 7.75089,5.518832 0.63854,1.706633 0.56502,2.913749 -0.28032,4.603488 -0.91331,1.825619 -2.04912,2.730039 -5.62836,4.481789 -3.37062,1.64964 -5.98135,2.6763 -11.49116,4.51877 -2.35666,0.78806 -4.31425,1.49913 -4.35016,1.58014 -0.036,0.081 -0.13442,0.10456 -0.21884,0.0523 -0.15282,-0.0944 -9.77811,3.08065 -12.3756,4.08233 -0.74984,0.28917 -2.96372,1.08457 -4.91974,1.76757 -4.25159,1.48456 -9.27241,3.5157 -9.36346,3.78792 -0.036,0.10748 -0.1368,0.15115 -0.22417,0.0971 -0.0874,-0.054 -2.4682,0.96114 -5.29073,2.25587 -5.73009,2.62845 -5.79983,2.65836 -5.5214,2.36955 0.47095,-0.48853 15.90809,-9.21406 19.39807,-10.96436 0.90013,-0.45143 1.68042,-0.87548 1.73398,-0.94229 0.0536,-0.0668 0.22886,-0.13651 0.38953,-0.15488 0.16069,-0.0184 1.49624,-0.56495 2.96791,-1.21464 2.44928,-1.08126 10.16353,-3.96351 12.85678,-4.80364 0.61595,-0.19214 1.1199,-0.42616 1.1199,-0.52004 0,-0.0939 0.0779,-0.12259 0.17292,-0.0638 0.15167,0.0937 5.35715,-1.58681 6.93603,-2.23919 0.32136,-0.1328 0.71575,-0.26804 0.87643,-0.30053 0.16069,-0.0326 1.25624,-0.42069 2.43457,-0.86264 4.15866,-1.559744 7.11451,-3.269805 7.75214,-4.484876 0.43641,-0.831658 0.33504,-1.911355 -0.24961,-2.658563 -0.52057,-0.665344 -1.93752,-1.645313 -2.17065,-1.50123 -0.0939,0.05796 -0.17059,0.02346 -0.17059,-0.07688 0,-0.184177 -1.61617,-0.949001 -2.27339,-1.075837 -0.19577,-0.03774 -0.61888,-0.175992 -0.94024,-0.307131 -0.82201,-0.335451 -2.84834,-0.788861 -3.94397,-0.882512 -0.50885,-0.04347 -1.05663,-0.127625 -1.21731,-0.186967 -0.16069,-0.05936 -1.25624,-0.195347 -2.43456,-0.302244 -2.02794,-0.183961 -2.17105,-0.225948 -2.67804,-0.785681 -0.62915,-0.694615 -0.69963,-1.544958 -0.16793,-2.026146 0.50498,-0.456999 1.79176,-0.923503 5.71988,-2.073635 5.35809,-1.568833 9.00153,-2.747901 9.07209,-2.935863 0.0359,-0.09569 0.13379,-0.13168 0.21749,-0.07991 0.44573,0.275482 7.43755,-2.938966 8.46619,-3.89227 0.2814,-0.260798 0.57529,-0.476171 0.65308,-0.478625 0.35754,-0.01135 1.83993,-1.468705 2.18818,-2.151347 0.73574,-1.442149 0.34438,-2.5349 -1.18779,-3.316555 -1.04247,-0.531833 -2.22362,-0.51297 -4.85165,0.07749 -3.05939,0.687362 -7.04749,1.323228 -8.5358,1.360949 -1.16244,0.02947 -1.26428,-0.0049 -1.80157,-0.604832 -0.70003,-0.781848 -0.70774,-1.020024 -0.0581,-1.792106 1.39657,-1.659727 5.60852,-2.703126 11.07205,-2.742802 2.41093,-0.01752 3.6196,-0.115348 4.73717,-0.383461 1.96056,-0.470353 5.77069,-1.633589 6.75906,-2.063541 0.42849,-0.186399 0.87245,-0.357099 0.98657,-0.379337 0.50782,-0.09897 3.2549,-1.46726 4.06565,-2.025075 1.62891,-1.120716 2.00956,-2.364093 1.17071,-3.82418 -0.56219,-0.978547 -2.49938,-2.465988 -3.53385,-2.713389 -0.19354,-0.04629 -0.83394,-0.258459 -1.42311,-0.471499 -0.93656,-0.338658 -1.57301,-0.387764 -5.06389,-0.390689 -4.11119,-0.0032 -9.62742,0.286939 -10.00928,0.526905 -0.11875,0.07463 -0.36423,0.111303 -0.54552,0.08151 -0.47898,-0.07872 -6.78688,1.236782 -8.72698,1.819992 -0.91054,0.27371 -1.84872,0.539332 -2.08487,0.59027 -1.02121,0.220267 -7.80974,2.468201 -9.11413,3.018019 -0.32138,0.135459 -0.70205,0.270084 -0.84594,0.299174 -0.69303,0.1401 -3.74788,1.453004 -6.55516,2.817253 -5.18416,2.519347 -8.50846,4.897991 -12.30321,8.803334 -2.01497,2.073697 -2.85946,3.219936 -3.9111,5.308648 -0.6809,1.352324 -1.78516,4.397819 -1.86757,5.150629 -0.031,0.283354 -0.11587,0.611409 -0.18855,0.72901 -0.24267,0.392641 -1.69587,6.715342 -1.58475,6.895108 0.0602,0.09742 0.0166,0.177159 -0.0968,0.177159 -0.11345,0 -0.20627,0.157005 -0.20627,0.348924 0,0.651103 -1.36282,5.132924 -2.25398,7.412525 -2.68733,6.874214 -7.61265,14.741944 -14.22706,22.726404 -2.52754,3.05107 -9.78586,10.3411 -12.34424,12.39819 -5.15919,4.14825 -12.22267,7.81996 -17.13936,8.90931 -0.58916,0.13053 -1.20267,0.2852 -1.36335,0.34372 -0.53765,0.19578 -4.37152,0.23102 -5.25867,0.0483 z"
       id="path1079-4" />
  </g>
</svg>
